<svg version="1.1" xmlns="http://www.w3.org/2000/svg" xmlns:xlink="http://www.w3.org/1999/xlink" width="1170" height="870.0000000000001"><style xmlns="http://www.w3.org/1999/xhtml"></style><defs/><g transform="translate(0,0)"><g><rect fill="#FFFFFF" stroke="none" x="0" y="0" width="1170" height="870.0000000000001"/></g><g transform="translate(0,0) matrix(1,0,0,1,0,0)"><g><g transform="translate(0,0) scale(11.5,8.500000000000002)"><g><path fill="#FFFFFF" stroke="none" d="M 0 0 L 100 0 Q 100 0 100 0 L 100 100 Q 100 100 100 100 L 0 100 Q 0 100 0 100 L 0 0 Q 0 0 0 0 Z"/><g transform="scale(0.08695652173913043,0.11764705882352938)"><path fill="none" stroke="#BBBBBB" d="M 0 0 L 1150 0 Q 1150 0 1150 0 L 1150 850.0000000000002 Q 1150 850.0000000000002 1150 850.0000000000002 L 0 850.0000000000002 Q 0 850.0000000000002 0 850.0000000000002 L 0 0 Q 0 0 0 0 Z" stroke-miterlimit="10" stroke-width="2"/></g></g></g></g></g><g transform="translate(0,0) matrix(1,0,0,1,0,0)"><g><g transform="translate(0,0) scale(11.5,0.3)"><g><path fill="#EEEEEE" stroke="none" d="M 0 0 L 100 0 Q 100 0 100 0 L 100 100 Q 100 100 100 100 L 0 100 Q 0 100 0 100 L 0 0 Q 0 0 0 0 Z"/><g transform="scale(0.08695652173913043,3.3333333333333335)"><path fill="none" stroke="#BBBBBB" d="M 0 0 L 1150 0 Q 1150 0 1150 0 L 1150 30 Q 1150 30 1150 30 L 0 30 Q 0 30 0 30 L 0 0 Q 0 0 0 0 Z" stroke-miterlimit="10" stroke-width="2"/></g></g></g></g></g><g transform="matrix(1,0,0,1,552,10)"><g transform="translate(7,-1) matrix(1,0,0,1,0,0) translate(-7,1)"><g><rect fill="rgb(0,0,0)" stroke="none" x="0" y="0" width="41" height="13" fill-opacity="0"/></g></g><g transform="translate(7,-1) matrix(1,0,0,1,0,0) translate(-7,1)"><g><rect fill="rgb(0,0,0)" stroke="none" x="0" y="0" width="41" height="13" fill-opacity="0"/></g></g><g transform="translate(7,-1) matrix(1,0,0,1,0,0) translate(-7,1)"><g><rect fill="rgb(0,0,0)" stroke="none" x="7" y="-1" width="27" height="15" fill-opacity="0"/></g><text fill="rgb(102, 102, 102)" stroke="none" font-family="Helvetica" font-size="13px" font-style="normal" font-weight="normal" text-decoration="" line-height="13px" x="7" y="11">DCC</text></g></g><g transform="translate(0,0) matrix(1,0,0,1,0,30)"><g><g transform="translate(0,0) scale(11.5,0.38)"><g><path fill="#EEEEEE" stroke="none" d="M 0 0 L 100 0 Q 100 0 100 0 L 100 100 Q 100 100 100 100 L 0 100 Q 0 100 0 100 L 0 0 Q 0 0 0 0 Z"/><g transform="scale(0.08695652173913043,2.6315789473684212)"><path fill="none" stroke="#BBBBBB" d="M 0 0 L 1150 0 Q 1150 0 1150 0 L 1150 38 Q 1150 38 1150 38 L 0 38 Q 0 38 0 38 L 0 0 Q 0 0 0 0 Z" stroke-miterlimit="10" stroke-width="2"/></g></g></g></g></g><g transform="translate(0.5,0.5) matrix(1,0,0,1,10,40)"><g><g transform="translate(0,0) scale(0.9955692516110543,0.9998000399920016) translate(-13.219,-74.093)"><g><path fill="#666666" stroke="rgb(0,0,0)" d="M 13.501 82.266 C 13.314 82.08 13.219 81.857 13.219 81.606 C 13.219 81.351 13.315 81.129 13.501 80.941 L 20.056 74.38 C 20.242 74.19 20.466 74.093 20.719 74.093 C 20.973 74.093 21.197 74.189 21.383 74.38 L 22.362 75.355 C 22.55 75.541 22.644 75.76 22.644 76.011 C 22.644 76.262 22.551 76.481 22.362 76.671 L 19.061 79.965 L 27.285 79.965 C 27.552 79.965 27.775 80.053 27.953 80.233 C 28.13 80.413 28.221 80.635 28.221 80.901 L 28.221 82.306 C 28.221 82.56 28.13 82.775 27.953 82.954 C 27.774 83.134 27.556 83.225 27.304 83.225 L 19.06 83.225 L 22.361 86.519 C 22.549 86.707 22.643 86.93 22.643 87.18 C 22.643 87.426 22.549 87.649 22.361 87.836 L 21.382 88.811 C 21.196 88.999 20.972 89.094 20.718 89.094 C 20.466 89.094 20.242 88.999 20.055 88.811 L 13.501 82.266 L 13.501 82.266 Z" stroke-opacity="0" stroke-miterlimit="10"/></g><g><path fill="#666666" stroke="rgb(0,0,0)" d="M 57.939 80.922 C 58.126 81.108 58.222 81.331 58.222 81.582 C 58.222 81.837 58.126 82.059 57.939 82.247 L 51.383 88.808 C 51.198 88.998 50.973 89.094 50.721 89.094 C 50.468 89.094 50.243 88.998 50.057 88.808 L 49.078 87.832 C 48.889 87.646 48.796 87.427 48.796 87.177 C 48.796 86.926 48.889 86.707 49.078 86.517 L 52.378 83.223 L 44.156 83.223 C 43.889 83.223 43.665 83.135 43.487 82.955 C 43.31 82.775 43.22 82.554 43.22 82.287 L 43.22 80.883 C 43.22 80.629 43.31 80.414 43.487 80.235 C 43.666 80.055 43.884 79.964 44.137 79.964 L 52.379 79.964 L 49.079 76.67 C 48.891 76.482 48.798 76.26 48.798 76.009 C 48.798 75.763 48.891 75.54 49.079 75.353 L 50.058 74.378 C 50.244 74.19 50.469 74.095 50.722 74.095 C 50.974 74.095 51.199 74.19 51.385 74.378 L 57.939 80.922 L 57.939 80.922 Z" stroke-opacity="0" stroke-miterlimit="10"/></g><g><path fill="#666666" stroke="rgb(0,0,0)" d="M 88.928 75.344 L 88.928 79.719 C 88.928 79.889 88.865 80.035 88.742 80.159 C 88.617 80.283 88.472 80.345 88.302 80.345 L 83.927 80.345 C 83.655 80.345 83.462 80.215 83.351 79.954 C 83.24 79.7 83.286 79.475 83.488 79.28 L 84.836 77.932 C 83.873 77.04 82.737 76.595 81.429 76.595 C 80.751 76.595 80.105 76.726 79.49 76.991 C 78.874 77.255 78.343 77.612 77.893 78.06 C 77.444 78.51 77.087 79.041 76.824 79.657 C 76.56 80.273 76.428 80.918 76.428 81.595 C 76.428 82.272 76.56 82.919 76.824 83.534 C 77.088 84.149 77.444 84.681 77.893 85.131 C 78.342 85.58 78.874 85.937 79.49 86.2 C 80.106 86.464 80.752 86.596 81.429 86.596 C 82.203 86.596 82.935 86.426 83.626 86.088 C 84.316 85.75 84.898 85.271 85.374 84.652 C 85.419 84.588 85.495 84.548 85.598 84.535 C 85.689 84.535 85.771 84.564 85.842 84.623 L 87.18 85.971 C 87.239 86.023 87.269 86.09 87.273 86.172 C 87.275 86.253 87.252 86.326 87.2 86.391 C 86.49 87.25 85.63 87.916 84.622 88.388 C 83.613 88.86 82.549 89.096 81.429 89.096 C 80.412 89.096 79.443 88.897 78.518 88.5 C 77.593 88.103 76.795 87.568 76.125 86.898 C 75.454 86.228 74.92 85.43 74.523 84.505 C 74.127 83.582 73.928 82.611 73.928 81.595 C 73.928 80.579 74.127 79.609 74.523 78.685 C 74.92 77.761 75.454 76.963 76.125 76.293 C 76.795 75.623 77.593 75.088 78.518 74.691 C 79.442 74.295 80.412 74.095 81.429 74.095 C 82.385 74.095 83.312 74.276 84.206 74.637 C 85.1 74.998 85.897 75.508 86.594 76.166 L 87.864 74.906 C 88.052 74.704 88.28 74.659 88.548 74.769 C 88.8 74.878 88.928 75.07 88.928 75.344 Z" stroke-opacity="0" stroke-miterlimit="10"/></g><g><path fill="#666666" stroke="rgb(0,0,0)" d="M 120.481 81.873 L 113.008 74.392 C 112.625 73.995 112 73.995 111.618 74.392 L 104.143 81.873 C 103.76 82.269 103.902 82.594 104.459 82.594 L 106.018 82.594 L 106.018 88.341 C 106.018 88.755 106.036 89.094 106.787 89.094 L 110.414 89.094 L 110.414 83.33 L 114.21 83.33 L 114.21 89.095 L 118.019 89.095 C 118.59 89.095 118.606 88.757 118.606 88.342 L 118.606 82.595 L 120.164 82.595 C 120.72 82.594 120.863 82.27 120.481 81.873 Z" stroke-opacity="0" stroke-miterlimit="10"/></g></g></g></g><g transform="translate(0.5,0.5) matrix(1,0,0,1,940,37)"><g><g transform="translate(0,0) scale(1,1) translate(-805.779,-69.524)"><g><path fill="#FFFFFF" stroke="#BBBBBB" d="M 805.779 69.524 L 1005.779 69.524 Q 1005.779 69.524 1005.779 69.524 L 1005.779 93.524 Q 1005.779 93.524 1005.779 93.524 L 805.779 93.524 Q 805.779 93.524 805.779 93.524 L 805.779 69.524 Q 805.779 69.524 805.779 69.524 Z" stroke-miterlimit="10"/></g><g><path fill="#BBBBBB" stroke="rgb(0,0,0)" d="M 826.846 87.041 L 823.354 83.549 C 823.989 82.54 824.362 81.352 824.362 80.07 C 824.362 76.455 821.432 73.524 817.821 73.524 C 814.212 73.524 811.28 76.455 811.28 80.07 C 811.28 83.684 814.212 86.613 817.821 86.613 C 819.1 86.613 820.292 86.24 821.3 85.605 L 824.79 89.098 C 825.073 89.381 825.444 89.524 825.815 89.524 C 826.188 89.524 826.559 89.381 826.846 89.098 C 827.41 88.529 827.41 87.607 826.846 87.041 Z M 813.461 80.069 C 813.461 77.664 815.416 75.706 817.82 75.706 C 820.222 75.706 822.179 77.664 822.179 80.069 C 822.179 82.475 820.222 84.432 817.82 84.432 C 815.416 84.432 813.461 82.475 813.461 80.069 Z" stroke-opacity="0" stroke-miterlimit="10"/></g></g></g></g><g transform="translate(0.5,0.5) matrix(1,0,0,1,130,37)"><g><g transform="translate(0,0) scale(8,0.24)"><g><path fill="#FFFFFF" stroke="none" d="M 0 0 L 100 0 Q 100 0 100 0 L 100 100 Q 100 100 100 100 L 0 100 Q 0 100 0 100 L 0 0 Q 0 0 0 0 Z"/><g transform="scale(0.125,4.166666666666667)"><path fill="none" stroke="#BBBBBB" d="M 0 0 L 800 0 Q 800 0 800 0 L 800 24 Q 800 24 800 24 L 0 24 Q 0 24 0 24 L 0 0 Q 0 0 0 0 Z" stroke-miterlimit="10"/></g></g></g></g></g><g transform="translate(0,0) matrix(1,0,0,1,0,205)"><g><g transform="translate(0,0) scale(3.6666666666666607,3.6666666666666665) translate(-83.999,75.756)"><g><path fill="#EEEEEE" stroke="#BBBBBB" d="M 83.999 -75.756 L 283.999 -75.756 Q 283.999 -75.756 283.999 -75.756 L 283.999 74.244 Q 283.999 74.244 283.999 74.244 L 83.999 74.244 Q 83.999 74.244 83.999 74.244 L 83.999 -75.756 Q 83.999 -75.756 83.999 -75.756 Z" stroke-miterlimit="10" stroke-width="2"/></g><g><path fill="rgb(0,0,0)" stroke="#FFFFFF" d="M 83.999 -46.256 L 283.999 -46.256" fill-opacity="0" stroke-miterlimit="10"/></g><g><path fill="rgb(0,0,0)" stroke="#FFFFFF" d="M 83.999 -16.256 L 283.999 -16.256" fill-opacity="0" stroke-miterlimit="10"/></g><g><path fill="rgb(0,0,0)" stroke="#FFFFFF" d="M 83.999 13.744 L 283.999 13.744" fill-opacity="0" stroke-miterlimit="10"/></g><g><path fill="rgb(0,0,0)" stroke="#FFFFFF" d="M 83.999 43.744 L 283.999 43.744" fill-opacity="0" stroke-miterlimit="10"/></g><g><path fill="rgb(0,0,0)" stroke="#888888" d="M 283.999 -28.986 L 248 -25 L 194.25 -7.5 L 163.083 27.879 L 128.75 33.75 L 83.999 74.244" fill-opacity="0" stroke-miterlimit="10" stroke-width="3"/></g><g><path fill="rgb(0,0,0)" stroke="#AAAAAA" d="M 83.999 57.165 L 142.25 -0.756 L 187.977 -16.256 L 216 -33.5 L 283.999 -68.779" fill-opacity="0" stroke-miterlimit="10" stroke-width="3"/></g><g><path fill="rgb(0,0,0)" stroke="#333333" d="M 83.999 37.552 L 126.11 -4.335 L 182 -7.5 L 260.825 5.182 L 283.999 2.986" fill-opacity="0" stroke-miterlimit="10" stroke-width="3"/></g><g><path fill="rgb(0,0,0)" stroke="#BBBBBB" d="M 83.999 -75.756 L 283.999 -75.756 Q 283.999 -75.756 283.999 -75.756 L 283.999 74.244 Q 283.999 74.244 283.999 74.244 L 83.999 74.244 Q 83.999 74.244 83.999 74.244 L 83.999 -75.756 Q 83.999 -75.756 83.999 -75.756 Z" fill-opacity="0" stroke-miterlimit="10"/></g></g></g></g><g transform="translate(0.5,0.5) matrix(1,0,0,1,720,70)"><g><g transform="translate(0,0) scale(1,1)"><g><g><path fill="#FFFFFF" stroke="rgb(0,0,0)" d="M 35 24 C 35 25.657 33.657 27 32 27 L 4 27 C 2.343 27 1 25.657 1 24 L 1 4 C 1 2.343 2.343 1 4 1 L 32 1 C 33.657 1 35 2.343 35 4 L 35 24 Z" stroke-opacity="0" stroke-miterlimit="10"/></g><g><path fill="rgb(0,0,0)" stroke="#BBBBBB" d="M 35 24 C 35 25.657 33.657 27 32 27 L 4 27 C 2.343 27 1 25.657 1 24 L 1 4 C 1 2.343 2.343 1 4 1 L 32 1 C 33.657 1 35 2.343 35 4 L 35 24 Z" fill-opacity="0" stroke-miterlimit="10" stroke-width="2"/></g></g><g><g><path fill="#FFFFFF" stroke="rgb(0,0,0)" d="M 146.833 23.999 C 146.833 25.648 145.483 26.999 143.833 26.999 L 101.833 26.999 C 100.184 26.999 98.833 25.648 98.833 23.999 L 98.833 4 C 98.833 2.35 100.184 1 101.833 1 L 143.833 1 C 145.483 1 146.833 2.35 146.833 4 L 146.833 23.999 Z" stroke-opacity="0" stroke-miterlimit="10"/></g><g><path fill="rgb(0,0,0)" stroke="#BBBBBB" d="M 146.833 23.999 C 146.833 25.648 145.483 26.999 143.833 26.999 L 101.833 26.999 C 100.184 26.999 98.833 25.648 98.833 23.999 L 98.833 4 C 98.833 2.35 100.184 1 101.833 1 L 143.833 1 C 145.483 1 146.833 2.35 146.833 4 L 146.833 23.999 Z" fill-opacity="0" stroke-miterlimit="10" stroke-width="2"/></g></g><g><g><path fill="#666666" stroke="rgb(0,0,0)" d="M 8.175 10.664 L 9.306 10.664 L 9.306 11.629 C 9.577 11.295 9.822 11.051 10.041 10.899 C 10.417 10.641 10.846 10.512 11.323 10.512 C 11.865 10.512 12.301 10.645 12.631 10.912 C 12.818 11.064 12.986 11.288 13.14 11.585 C 13.394 11.221 13.692 10.951 14.035 10.775 C 14.378 10.6 14.764 10.512 15.19 10.512 C 16.104 10.512 16.726 10.842 17.056 11.502 C 17.234 11.857 17.323 12.335 17.323 12.937 L 17.323 17.463 L 16.135 17.463 L 16.135 12.74 C 16.135 12.287 16.023 11.976 15.795 11.807 C 15.569 11.638 15.293 11.553 14.967 11.553 C 14.519 11.553 14.132 11.703 13.81 12.004 C 13.486 12.304 13.324 12.806 13.324 13.508 L 13.324 17.463 L 12.162 17.463 L 12.162 13.025 C 12.162 12.564 12.107 12.227 11.997 12.016 C 11.824 11.699 11.5 11.54 11.026 11.54 C 10.593 11.54 10.202 11.707 9.849 12.041 C 9.495 12.375 9.319 12.98 9.319 13.856 L 9.319 17.462 L 8.175 17.462 L 8.175 10.664 Z" stroke-opacity="0" stroke-miterlimit="10"/></g><g><path fill="#666666" stroke="rgb(0,0,0)" d="M 19.004 10.664 L 20.134 10.664 L 20.134 11.629 C 20.405 11.295 20.651 11.051 20.87 10.899 C 21.246 10.641 21.674 10.512 22.152 10.512 C 22.694 10.512 23.13 10.645 23.46 10.912 C 23.647 11.064 23.815 11.288 23.968 11.585 C 24.223 11.221 24.521 10.951 24.864 10.775 C 25.207 10.6 25.592 10.512 26.019 10.512 C 26.933 10.512 27.555 10.842 27.884 11.502 C 28.063 11.857 28.152 12.335 28.152 12.937 L 28.152 17.463 L 26.964 17.463 L 26.964 12.74 C 26.964 12.287 26.852 11.976 26.624 11.807 C 26.398 11.638 26.122 11.553 25.796 11.553 C 25.348 11.553 24.961 11.703 24.639 12.004 C 24.315 12.304 24.153 12.806 24.153 13.508 L 24.153 17.463 L 22.99 17.463 L 22.99 13.025 C 22.99 12.564 22.935 12.227 22.825 12.016 C 22.652 11.699 22.328 11.54 21.854 11.54 C 21.421 11.54 21.03 11.707 20.676 12.041 C 20.322 12.375 20.147 12.98 20.147 13.856 L 20.147 17.462 L 19.003 17.462 L 19.003 10.664 Z" stroke-opacity="0" stroke-miterlimit="10"/></g></g><g><g><path fill="#FFFFFF" stroke="rgb(0,0,0)" d="M 84.492 23.999 C 84.492 25.648 83.142 26.999 81.492 26.999 L 53.492 26.999 C 51.842 26.999 50.492 25.648 50.492 23.999 L 50.492 4 C 50.492 2.35 51.842 1 53.492 1 L 81.492 1 C 83.142 1 84.492 2.35 84.492 4 L 84.492 23.999 Z" stroke-opacity="0" stroke-miterlimit="10"/></g><g><path fill="rgb(0,0,0)" stroke="#BBBBBB" d="M 84.492 23.999 C 84.492 25.648 83.142 26.999 81.492 26.999 L 53.492 26.999 C 51.842 26.999 50.492 25.648 50.492 23.999 L 50.492 4 C 50.492 2.35 51.842 1 53.492 1 L 81.492 1 C 83.142 1 84.492 2.35 84.492 4 L 84.492 23.999 Z" fill-opacity="0" stroke-miterlimit="10" stroke-width="2"/></g></g><g><g><path fill="#666666" stroke="rgb(0,0,0)" d="M 115.087 10.664 L 116.352 10.664 C 116.191 11.1 115.832 12.095 115.28 13.649 C 114.864 14.816 114.518 15.77 114.239 16.506 C 113.579 18.24 113.114 19.297 112.843 19.678 C 112.573 20.059 112.11 20.249 111.448 20.249 C 111.288 20.249 111.163 20.242 111.077 20.23 C 110.99 20.215 110.884 20.193 110.757 20.16 L 110.757 19.119 C 110.956 19.174 111.1 19.208 111.189 19.221 C 111.278 19.235 111.356 19.242 111.423 19.242 C 111.634 19.242 111.788 19.207 111.889 19.137 C 111.989 19.068 112.073 18.984 112.139 18.881 C 112.16 18.847 112.237 18.674 112.368 18.36 C 112.499 18.048 112.595 17.815 112.653 17.664 L 110.139 10.666 L 111.434 10.666 L 113.255 16.203 L 115.087 10.664 Z" stroke-opacity="0" stroke-miterlimit="10"/></g><g><path fill="#666666" stroke="rgb(0,0,0)" d="M 121.587 10.664 L 122.852 10.664 C 122.691 11.1 122.332 12.095 121.78 13.649 C 121.364 14.816 121.018 15.77 120.739 16.506 C 120.079 18.24 119.614 19.297 119.343 19.678 C 119.073 20.059 118.61 20.249 117.948 20.249 C 117.788 20.249 117.663 20.242 117.577 20.23 C 117.49 20.215 117.384 20.193 117.257 20.16 L 117.257 19.119 C 117.456 19.174 117.6 19.208 117.689 19.221 C 117.778 19.235 117.856 19.242 117.923 19.242 C 118.134 19.242 118.288 19.207 118.389 19.137 C 118.489 19.068 118.573 18.984 118.639 18.881 C 118.66 18.847 118.737 18.674 118.868 18.36 C 118.999 18.048 119.095 17.815 119.153 17.664 L 116.639 10.666 L 117.934 10.666 L 119.755 16.203 L 121.587 10.664 Z" stroke-opacity="0" stroke-miterlimit="10"/></g><g><path fill="#666666" stroke="rgb(0,0,0)" d="M 128.087 10.664 L 129.352 10.664 C 129.191 11.1 128.832 12.095 128.28 13.649 C 127.864 14.816 127.518 15.77 127.239 16.506 C 126.579 18.24 126.114 19.297 125.843 19.678 C 125.573 20.059 125.11 20.249 124.448 20.249 C 124.288 20.249 124.163 20.242 124.077 20.23 C 123.99 20.215 123.884 20.193 123.757 20.16 L 123.757 19.119 C 123.956 19.174 124.1 19.208 124.189 19.221 C 124.278 19.235 124.356 19.242 124.423 19.242 C 124.634 19.242 124.788 19.207 124.889 19.137 C 124.989 19.068 125.073 18.984 125.139 18.881 C 125.16 18.847 125.237 18.674 125.368 18.36 C 125.499 18.048 125.595 17.815 125.653 17.664 L 123.139 10.666 L 124.434 10.666 L 126.255 16.203 L 128.087 10.664 Z" stroke-opacity="0" stroke-miterlimit="10"/></g><g><path fill="#666666" stroke="rgb(0,0,0)" d="M 134.587 10.664 L 135.852 10.664 C 135.691 11.1 135.332 12.095 134.78 13.649 C 134.364 14.816 134.018 15.77 133.739 16.506 C 133.079 18.24 132.614 19.297 132.343 19.678 C 132.073 20.059 131.61 20.249 130.948 20.249 C 130.788 20.249 130.663 20.242 130.577 20.23 C 130.49 20.215 130.384 20.193 130.257 20.16 L 130.257 19.119 C 130.456 19.174 130.6 19.208 130.689 19.221 C 130.778 19.235 130.856 19.242 130.923 19.242 C 131.134 19.242 131.288 19.207 131.389 19.137 C 131.489 19.068 131.573 18.984 131.639 18.881 C 131.66 18.847 131.737 18.674 131.868 18.36 C 131.999 18.048 132.095 17.815 132.153 17.664 L 129.639 10.666 L 130.934 10.666 L 132.755 16.203 L 134.587 10.664 Z" stroke-opacity="0" stroke-miterlimit="10"/></g></g><g transform="matrix(1,0,0,1,40.282,19)"><g><text fill="#999999" stroke="none" font-family="Helvetica-Bold" font-size="18px" font-style="normal" font-weight="normal" text-decoration="" line-height="normal" x="0" y="0">/</text><text fill="none" stroke="rgb(0,0,0)" font-family="Helvetica-Bold" font-size="18px" font-style="normal" font-weight="normal" text-decoration="" line-height="normal" x="0" y="0" stroke-opacity="0" stroke-miterlimit="10">/</text></g></g><g transform="matrix(1,0,0,1,89.7644,19)"><g><text fill="#999999" stroke="none" font-family="Helvetica-Bold" font-size="18px" font-style="normal" font-weight="normal" text-decoration="" line-height="normal" x="0" y="0">/</text><text fill="none" stroke="rgb(0,0,0)" font-family="Helvetica-Bold" font-size="18px" font-style="normal" font-weight="normal" text-decoration="" line-height="normal" x="0" y="0" stroke-opacity="0" stroke-miterlimit="10">/</text></g></g><g><g><path fill="#F9F9F9" stroke="#BBBBBB" d="M 152.263 1 L 176.263 1 Q 176.263 1 176.263 1 L 176.263 27 Q 176.263 27 176.263 27 L 152.263 27 Q 152.263 27 152.263 27 L 152.263 1 Q 152.263 1 152.263 1 Z" stroke-miterlimit="10"/></g><g><path fill="rgb(0,0,0)" stroke="#BBBBBB" d="M 152.263 9 L 176.263 9" fill-opacity="0" stroke-miterlimit="10"/></g><g><path fill="rgb(0,0,0)" stroke="#BBBBBB" d="M 152.263 15 L 176.263 15" fill-opacity="0" stroke-miterlimit="10"/></g><g><path fill="rgb(0,0,0)" stroke="#BBBBBB" d="M 152.263 21 L 176.263 21" fill-opacity="0" stroke-miterlimit="10"/></g><g><path fill="rgb(0,0,0)" stroke="#BBBBBB" d="M 157.063 9 L 157.063 27" fill-opacity="0" stroke-miterlimit="10" stroke-width="0.6124"/></g><g><path fill="rgb(0,0,0)" stroke="#BBBBBB" d="M 161.862 9 L 161.862 27" fill-opacity="0" stroke-miterlimit="10" stroke-width="0.6124"/></g><g><path fill="rgb(0,0,0)" stroke="#BBBBBB" d="M 166.663 9 L 166.663 27" fill-opacity="0" stroke-miterlimit="10" stroke-width="0.6124"/></g><g><path fill="rgb(0,0,0)" stroke="#BBBBBB" d="M 171.464 9 L 171.464 27" fill-opacity="0" stroke-miterlimit="10" stroke-width="0.6124"/></g></g><g><g><g><path fill="#666666" stroke="rgb(0,0,0)" d="M 66.474 7.5 L 66.474 15.694 C 66.474 16.297 66.488 16.983 66.53 17.444 L 65.424 17.444 L 65.368 16.268 L 65.34 16.268 C 64.962 17.024 64.135 17.598 63.028 17.598 C 61.389 17.598 60.129 16.211 60.129 14.153 C 60.115 11.898 61.517 10.51 63.169 10.51 C 64.206 10.51 64.906 11 65.214 11.547 L 65.242 11.547 L 65.242 7.5 L 66.474 7.5 Z M 65.241 13.425 C 65.241 13.271 65.227 13.061 65.185 12.906 C 65.002 12.122 64.331 11.477 63.406 11.477 C 62.131 11.477 61.375 12.598 61.375 14.097 C 61.375 15.469 62.047 16.605 63.378 16.605 C 64.204 16.605 64.961 16.058 65.186 15.134 C 65.228 14.966 65.242 14.798 65.242 14.601 L 65.242 13.425 Z" stroke-opacity="0" stroke-miterlimit="10"/></g><g><path fill="#666666" stroke="rgb(0,0,0)" d="M 74.37 7.5 L 74.37 15.694 C 74.37 16.297 74.384 16.983 74.426 17.444 L 73.32 17.444 L 73.264 16.268 L 73.236 16.268 C 72.858 17.024 72.031 17.598 70.924 17.598 C 69.285 17.598 68.026 16.211 68.026 14.153 C 68.012 11.898 69.413 10.51 71.066 10.51 C 72.103 10.51 72.802 11 73.111 11.547 L 73.139 11.547 L 73.139 7.5 L 74.37 7.5 Z M 73.137 13.425 C 73.137 13.271 73.122 13.061 73.08 12.906 C 72.898 12.122 72.226 11.477 71.301 11.477 C 70.027 11.477 69.271 12.598 69.271 14.097 C 69.271 15.469 69.943 16.605 71.274 16.605 C 72.1 16.605 72.857 16.058 73.081 15.134 C 73.123 14.966 73.138 14.798 73.138 14.601 L 73.138 13.425 Z" stroke-opacity="0" stroke-miterlimit="10"/></g></g></g></g></g></g><g transform="translate(0.5,0.5) matrix(1,0,0,1,973,70)"><g><g transform="translate(0,0) scale(1,1)"><g><g><path fill="#FFFFFF" stroke="rgb(0,0,0)" d="M 35 24 C 35 25.657 33.657 27 32 27 L 4 27 C 2.343 27 1 25.657 1 24 L 1 4 C 1 2.343 2.343 1 4 1 L 32 1 C 33.657 1 35 2.343 35 4 L 35 24 Z" stroke-opacity="0" stroke-miterlimit="10"/></g><g><path fill="rgb(0,0,0)" stroke="#BBBBBB" d="M 35 24 C 35 25.657 33.657 27 32 27 L 4 27 C 2.343 27 1 25.657 1 24 L 1 4 C 1 2.343 2.343 1 4 1 L 32 1 C 33.657 1 35 2.343 35 4 L 35 24 Z" fill-opacity="0" stroke-miterlimit="10" stroke-width="2"/></g></g><g><g><path fill="#FFFFFF" stroke="rgb(0,0,0)" d="M 146.833 23.999 C 146.833 25.648 145.483 26.999 143.833 26.999 L 101.833 26.999 C 100.184 26.999 98.833 25.648 98.833 23.999 L 98.833 4 C 98.833 2.35 100.184 1 101.833 1 L 143.833 1 C 145.483 1 146.833 2.35 146.833 4 L 146.833 23.999 Z" stroke-opacity="0" stroke-miterlimit="10"/></g><g><path fill="rgb(0,0,0)" stroke="#BBBBBB" d="M 146.833 23.999 C 146.833 25.648 145.483 26.999 143.833 26.999 L 101.833 26.999 C 100.184 26.999 98.833 25.648 98.833 23.999 L 98.833 4 C 98.833 2.35 100.184 1 101.833 1 L 143.833 1 C 145.483 1 146.833 2.35 146.833 4 L 146.833 23.999 Z" fill-opacity="0" stroke-miterlimit="10" stroke-width="2"/></g></g><g><g><path fill="#666666" stroke="rgb(0,0,0)" d="M 8.175 10.664 L 9.306 10.664 L 9.306 11.629 C 9.577 11.295 9.822 11.051 10.041 10.899 C 10.417 10.641 10.846 10.512 11.323 10.512 C 11.865 10.512 12.301 10.645 12.631 10.912 C 12.818 11.064 12.986 11.288 13.14 11.585 C 13.394 11.221 13.692 10.951 14.035 10.775 C 14.378 10.6 14.764 10.512 15.19 10.512 C 16.104 10.512 16.726 10.842 17.056 11.502 C 17.234 11.857 17.323 12.335 17.323 12.937 L 17.323 17.463 L 16.135 17.463 L 16.135 12.74 C 16.135 12.287 16.023 11.976 15.795 11.807 C 15.569 11.638 15.293 11.553 14.967 11.553 C 14.519 11.553 14.132 11.703 13.81 12.004 C 13.486 12.304 13.324 12.806 13.324 13.508 L 13.324 17.463 L 12.162 17.463 L 12.162 13.025 C 12.162 12.564 12.107 12.227 11.997 12.016 C 11.824 11.699 11.5 11.54 11.026 11.54 C 10.593 11.54 10.202 11.707 9.849 12.041 C 9.495 12.375 9.319 12.98 9.319 13.856 L 9.319 17.462 L 8.175 17.462 L 8.175 10.664 Z" stroke-opacity="0" stroke-miterlimit="10"/></g><g><path fill="#666666" stroke="rgb(0,0,0)" d="M 19.004 10.664 L 20.134 10.664 L 20.134 11.629 C 20.405 11.295 20.651 11.051 20.87 10.899 C 21.246 10.641 21.674 10.512 22.152 10.512 C 22.694 10.512 23.13 10.645 23.46 10.912 C 23.647 11.064 23.815 11.288 23.968 11.585 C 24.223 11.221 24.521 10.951 24.864 10.775 C 25.207 10.6 25.592 10.512 26.019 10.512 C 26.933 10.512 27.555 10.842 27.884 11.502 C 28.063 11.857 28.152 12.335 28.152 12.937 L 28.152 17.463 L 26.964 17.463 L 26.964 12.74 C 26.964 12.287 26.852 11.976 26.624 11.807 C 26.398 11.638 26.122 11.553 25.796 11.553 C 25.348 11.553 24.961 11.703 24.639 12.004 C 24.315 12.304 24.153 12.806 24.153 13.508 L 24.153 17.463 L 22.99 17.463 L 22.99 13.025 C 22.99 12.564 22.935 12.227 22.825 12.016 C 22.652 11.699 22.328 11.54 21.854 11.54 C 21.421 11.54 21.03 11.707 20.676 12.041 C 20.322 12.375 20.147 12.98 20.147 13.856 L 20.147 17.462 L 19.003 17.462 L 19.003 10.664 Z" stroke-opacity="0" stroke-miterlimit="10"/></g></g><g><g><path fill="#FFFFFF" stroke="rgb(0,0,0)" d="M 84.492 23.999 C 84.492 25.648 83.142 26.999 81.492 26.999 L 53.492 26.999 C 51.842 26.999 50.492 25.648 50.492 23.999 L 50.492 4 C 50.492 2.35 51.842 1 53.492 1 L 81.492 1 C 83.142 1 84.492 2.35 84.492 4 L 84.492 23.999 Z" stroke-opacity="0" stroke-miterlimit="10"/></g><g><path fill="rgb(0,0,0)" stroke="#BBBBBB" d="M 84.492 23.999 C 84.492 25.648 83.142 26.999 81.492 26.999 L 53.492 26.999 C 51.842 26.999 50.492 25.648 50.492 23.999 L 50.492 4 C 50.492 2.35 51.842 1 53.492 1 L 81.492 1 C 83.142 1 84.492 2.35 84.492 4 L 84.492 23.999 Z" fill-opacity="0" stroke-miterlimit="10" stroke-width="2"/></g></g><g><g><path fill="#666666" stroke="rgb(0,0,0)" d="M 115.087 10.664 L 116.352 10.664 C 116.191 11.1 115.832 12.095 115.28 13.649 C 114.864 14.816 114.518 15.77 114.239 16.506 C 113.579 18.24 113.114 19.297 112.843 19.678 C 112.573 20.059 112.11 20.249 111.448 20.249 C 111.288 20.249 111.163 20.242 111.077 20.23 C 110.99 20.215 110.884 20.193 110.757 20.16 L 110.757 19.119 C 110.956 19.174 111.1 19.208 111.189 19.221 C 111.278 19.235 111.356 19.242 111.423 19.242 C 111.634 19.242 111.788 19.207 111.889 19.137 C 111.989 19.068 112.073 18.984 112.139 18.881 C 112.16 18.847 112.237 18.674 112.368 18.36 C 112.499 18.048 112.595 17.815 112.653 17.664 L 110.139 10.666 L 111.434 10.666 L 113.255 16.203 L 115.087 10.664 Z" stroke-opacity="0" stroke-miterlimit="10"/></g><g><path fill="#666666" stroke="rgb(0,0,0)" d="M 121.587 10.664 L 122.852 10.664 C 122.691 11.1 122.332 12.095 121.78 13.649 C 121.364 14.816 121.018 15.77 120.739 16.506 C 120.079 18.24 119.614 19.297 119.343 19.678 C 119.073 20.059 118.61 20.249 117.948 20.249 C 117.788 20.249 117.663 20.242 117.577 20.23 C 117.49 20.215 117.384 20.193 117.257 20.16 L 117.257 19.119 C 117.456 19.174 117.6 19.208 117.689 19.221 C 117.778 19.235 117.856 19.242 117.923 19.242 C 118.134 19.242 118.288 19.207 118.389 19.137 C 118.489 19.068 118.573 18.984 118.639 18.881 C 118.66 18.847 118.737 18.674 118.868 18.36 C 118.999 18.048 119.095 17.815 119.153 17.664 L 116.639 10.666 L 117.934 10.666 L 119.755 16.203 L 121.587 10.664 Z" stroke-opacity="0" stroke-miterlimit="10"/></g><g><path fill="#666666" stroke="rgb(0,0,0)" d="M 128.087 10.664 L 129.352 10.664 C 129.191 11.1 128.832 12.095 128.28 13.649 C 127.864 14.816 127.518 15.77 127.239 16.506 C 126.579 18.24 126.114 19.297 125.843 19.678 C 125.573 20.059 125.11 20.249 124.448 20.249 C 124.288 20.249 124.163 20.242 124.077 20.23 C 123.99 20.215 123.884 20.193 123.757 20.16 L 123.757 19.119 C 123.956 19.174 124.1 19.208 124.189 19.221 C 124.278 19.235 124.356 19.242 124.423 19.242 C 124.634 19.242 124.788 19.207 124.889 19.137 C 124.989 19.068 125.073 18.984 125.139 18.881 C 125.16 18.847 125.237 18.674 125.368 18.36 C 125.499 18.048 125.595 17.815 125.653 17.664 L 123.139 10.666 L 124.434 10.666 L 126.255 16.203 L 128.087 10.664 Z" stroke-opacity="0" stroke-miterlimit="10"/></g><g><path fill="#666666" stroke="rgb(0,0,0)" d="M 134.587 10.664 L 135.852 10.664 C 135.691 11.1 135.332 12.095 134.78 13.649 C 134.364 14.816 134.018 15.77 133.739 16.506 C 133.079 18.24 132.614 19.297 132.343 19.678 C 132.073 20.059 131.61 20.249 130.948 20.249 C 130.788 20.249 130.663 20.242 130.577 20.23 C 130.49 20.215 130.384 20.193 130.257 20.16 L 130.257 19.119 C 130.456 19.174 130.6 19.208 130.689 19.221 C 130.778 19.235 130.856 19.242 130.923 19.242 C 131.134 19.242 131.288 19.207 131.389 19.137 C 131.489 19.068 131.573 18.984 131.639 18.881 C 131.66 18.847 131.737 18.674 131.868 18.36 C 131.999 18.048 132.095 17.815 132.153 17.664 L 129.639 10.666 L 130.934 10.666 L 132.755 16.203 L 134.587 10.664 Z" stroke-opacity="0" stroke-miterlimit="10"/></g></g><g transform="matrix(1,0,0,1,40.282,19)"><g><text fill="#999999" stroke="none" font-family="Helvetica-Bold" font-size="18px" font-style="normal" font-weight="normal" text-decoration="" line-height="normal" x="0" y="0">/</text><text fill="none" stroke="rgb(0,0,0)" font-family="Helvetica-Bold" font-size="18px" font-style="normal" font-weight="normal" text-decoration="" line-height="normal" x="0" y="0" stroke-opacity="0" stroke-miterlimit="10">/</text></g></g><g transform="matrix(1,0,0,1,89.7644,19)"><g><text fill="#999999" stroke="none" font-family="Helvetica-Bold" font-size="18px" font-style="normal" font-weight="normal" text-decoration="" line-height="normal" x="0" y="0">/</text><text fill="none" stroke="rgb(0,0,0)" font-family="Helvetica-Bold" font-size="18px" font-style="normal" font-weight="normal" text-decoration="" line-height="normal" x="0" y="0" stroke-opacity="0" stroke-miterlimit="10">/</text></g></g><g><g><path fill="#F9F9F9" stroke="#BBBBBB" d="M 152.263 1 L 176.263 1 Q 176.263 1 176.263 1 L 176.263 27 Q 176.263 27 176.263 27 L 152.263 27 Q 152.263 27 152.263 27 L 152.263 1 Q 152.263 1 152.263 1 Z" stroke-miterlimit="10"/></g><g><path fill="rgb(0,0,0)" stroke="#BBBBBB" d="M 152.263 9 L 176.263 9" fill-opacity="0" stroke-miterlimit="10"/></g><g><path fill="rgb(0,0,0)" stroke="#BBBBBB" d="M 152.263 15 L 176.263 15" fill-opacity="0" stroke-miterlimit="10"/></g><g><path fill="rgb(0,0,0)" stroke="#BBBBBB" d="M 152.263 21 L 176.263 21" fill-opacity="0" stroke-miterlimit="10"/></g><g><path fill="rgb(0,0,0)" stroke="#BBBBBB" d="M 157.063 9 L 157.063 27" fill-opacity="0" stroke-miterlimit="10" stroke-width="0.6124"/></g><g><path fill="rgb(0,0,0)" stroke="#BBBBBB" d="M 161.862 9 L 161.862 27" fill-opacity="0" stroke-miterlimit="10" stroke-width="0.6124"/></g><g><path fill="rgb(0,0,0)" stroke="#BBBBBB" d="M 166.663 9 L 166.663 27" fill-opacity="0" stroke-miterlimit="10" stroke-width="0.6124"/></g><g><path fill="rgb(0,0,0)" stroke="#BBBBBB" d="M 171.464 9 L 171.464 27" fill-opacity="0" stroke-miterlimit="10" stroke-width="0.6124"/></g></g><g><g><g><path fill="#666666" stroke="rgb(0,0,0)" d="M 66.474 7.5 L 66.474 15.694 C 66.474 16.297 66.488 16.983 66.53 17.444 L 65.424 17.444 L 65.368 16.268 L 65.34 16.268 C 64.962 17.024 64.135 17.598 63.028 17.598 C 61.389 17.598 60.129 16.211 60.129 14.153 C 60.115 11.898 61.517 10.51 63.169 10.51 C 64.206 10.51 64.906 11 65.214 11.547 L 65.242 11.547 L 65.242 7.5 L 66.474 7.5 Z M 65.241 13.425 C 65.241 13.271 65.227 13.061 65.185 12.906 C 65.002 12.122 64.331 11.477 63.406 11.477 C 62.131 11.477 61.375 12.598 61.375 14.097 C 61.375 15.469 62.047 16.605 63.378 16.605 C 64.204 16.605 64.961 16.058 65.186 15.134 C 65.228 14.966 65.242 14.798 65.242 14.601 L 65.242 13.425 Z" stroke-opacity="0" stroke-miterlimit="10"/></g><g><path fill="#666666" stroke="rgb(0,0,0)" d="M 74.37 7.5 L 74.37 15.694 C 74.37 16.297 74.384 16.983 74.426 17.444 L 73.32 17.444 L 73.264 16.268 L 73.236 16.268 C 72.858 17.024 72.031 17.598 70.924 17.598 C 69.285 17.598 68.026 16.211 68.026 14.153 C 68.012 11.898 69.413 10.51 71.066 10.51 C 72.103 10.51 72.802 11 73.111 11.547 L 73.139 11.547 L 73.139 7.5 L 74.37 7.5 Z M 73.137 13.425 C 73.137 13.271 73.122 13.061 73.08 12.906 C 72.898 12.122 72.226 11.477 71.301 11.477 C 70.027 11.477 69.271 12.598 69.271 14.097 C 69.271 15.469 69.943 16.605 71.274 16.605 C 72.1 16.605 72.857 16.058 73.081 15.134 C 73.123 14.966 73.138 14.798 73.138 14.601 L 73.138 13.425 Z" stroke-opacity="0" stroke-miterlimit="10"/></g></g></g></g></g></g><g transform="translate(0,0) matrix(1,0,0,1,900,68)"><g><g transform="translate(0,0) scale(0.73,0.3)"><g><g transform="scale(1.36986301369863,3.3333333333333335)"><path fill="#EEF19F" stroke="none" d="M 0 15 L 15.000000000000002 0 L 15.000000000000002 9 L 58 9 L 58 0 L 73 15 L 58 30 L 58 21 L 15.000000000000002 21 L 15.000000000000002 30 L 0 15 Z"/><path fill="none" stroke="#B5BF5E" d="M 0 15 M 0 15 L 15.000000000000002 0 L 15.000000000000002 9 L 58 9 L 58 0 L 73 15 L 58 30 L 58 21 L 15.000000000000002 21 L 15.000000000000002 30 L 0 15 Z" stroke-miterlimit="10" stroke-width="2"/></g></g></g></g></g><g transform="translate(0,0) matrix(1,0,0,1,0,70)"><g><g transform="translate(0,0) scale(1.76,0.28)"><g><path fill="none" stroke="none" d="M 4 0 L 100 0 L 100 100 L 4 100 Q 0 100 0 96 L 0 4 Q 0 0 4 0 Z"/><g transform="scale(0.5681818181818182,3.571428571428571)"><path fill="#FFFFFF" stroke="#BBBBBB" d="M 4 0 L 176 0 L 176 28.000000000000004 L 4 28.000000000000004 Q 0 28.000000000000004 0 24.000000000000004 L 0 4 Q 0 0 4 0 Z" stroke-miterlimit="10" stroke-width="2"/></g></g></g></g></g><g transform="translate(0,0) matrix(1,0,0,1,176,70)"><g><g transform="translate(0,0) scale(1.76,0.28)"><g><path fill="none" stroke="none" d="M 0 0 L 96 0 Q 100 0 100 4 L 100 96 Q 100 100 96 100 L 0 100 L 0 0 Z"/><g transform="scale(0.5681818181818182,3.571428571428571)"><path fill="#EEEEEE" stroke="#BBBBBB" d="M 0 0 L 172 0 Q 176 0 176 4 L 176 24.000000000000004 Q 176 28.000000000000004 172 28.000000000000004 L 0 28.000000000000004 L 0 0 Z" stroke-miterlimit="10" stroke-width="2"/></g></g></g></g></g><g transform="matrix(1,0,0,1,6,77)"><g transform="translate(59,0) matrix(1,0,0,1,0,0) translate(-59,0)"><g><rect fill="rgb(0,0,0)" stroke="none" x="0" y="0" width="165" height="27" fill-opacity="0"/></g></g><g transform="translate(59,0) matrix(1,0,0,1,0,0) translate(-59,0)"><g><rect fill="rgb(0,0,0)" stroke="none" x="0" y="0" width="165" height="15" fill-opacity="0"/></g></g><g transform="translate(59,0) matrix(1,0,0,1,0,0) translate(-59,0)"><g><rect fill="rgb(0,0,0)" stroke="none" x="59" y="0" width="48" height="15" fill-opacity="0"/></g><text fill="rgb(102, 102, 102)" stroke="none" font-family="Arial" font-size="13px" font-style="normal" font-weight="normal" text-decoration="" line-height="15.5px" x="59" y="12">Settings</text></g></g><g transform="matrix(1,0,0,1,182,77)"><g transform="translate(63,0) matrix(1,0,0,1,0,0) translate(-63,0)"><g><rect fill="rgb(0,0,0)" stroke="none" x="0" y="0" width="165" height="27" fill-opacity="0"/></g></g><g transform="translate(63,0) matrix(1,0,0,1,0,0) translate(-63,0)"><g><rect fill="rgb(0,0,0)" stroke="none" x="0" y="0" width="165" height="15" fill-opacity="0"/></g></g><g transform="translate(63,0) matrix(1,0,0,1,0,0) translate(-63,0)"><g><rect fill="rgb(0,0,0)" stroke="none" x="63" y="0" width="39" height="15" fill-opacity="0"/></g><text fill="rgb(102, 102, 102)" stroke="none" font-family="Arial" font-size="13px" font-style="normal" font-weight="normal" text-decoration="" line-height="15.5px" x="63" y="12">Logout</text></g></g><g transform="translate(0,0) matrix(1,0,0,1,430,70)"><g><g transform="translate(0,0) scale(2.2,0.28)"><g><path fill="none" stroke="none" d="M 4 0 L 96 0 Q 100 0 100 4 L 100 96 Q 100 100 96 100 L 4 100 Q 0 100 0 96 L 0 4 Q 0 0 4 0 Z"/><g transform="scale(0.45454545454545453,3.571428571428571)"><path fill="#FFFFFF" stroke="#BBBBBB" d="M 4 0 L 216.00000000000003 0 Q 220.00000000000003 0 220.00000000000003 4 L 220.00000000000003 24.000000000000004 Q 220.00000000000003 28.000000000000004 216.00000000000003 28.000000000000004 L 4 28.000000000000004 Q 0 28.000000000000004 0 24.000000000000004 L 0 4 Q 0 0 4 0 Z" stroke-miterlimit="10" stroke-width="2"/></g></g></g></g></g><g transform="matrix(1,0,0,1,464,78)"><g transform="translate(0,-1) matrix(1,0,0,1,0,0) translate(0,1)"><g><rect fill="rgb(0,0,0)" stroke="none" x="0" y="0" width="183" height="17" fill-opacity="0"/></g></g><g transform="translate(0,-1) matrix(1,0,0,1,0,0) translate(0,1)"><g><rect fill="rgb(0,0,0)" stroke="none" x="0" y="0" width="183" height="13" fill-opacity="0"/></g></g><g transform="translate(0,-1) matrix(1,0,0,1,0,0) translate(0,1)"><g><rect fill="rgb(0,0,0)" stroke="none" x="0" y="-1" width="41" height="15" fill-opacity="0"/></g><text fill="rgb(85, 85, 85)" stroke="none" font-family="Helvetica" font-size="13px" font-style="normal" font-weight="normal" text-decoration="" line-height="13px" x="0" y="11">Search</text></g></g><g transform="translate(0.5,0.5) matrix(1,0,0,1,437,76)"><g><g transform="translate(0,0) scale(0.9631437010401952,1) translate(-8,-6)"><g><g><g><path fill="#BBBBBB" stroke="rgb(0,0,0)" d="M 23.574 19.517 L 20.082 16.025 C 20.717 15.017 21.092 13.827 21.092 12.546 C 21.092 8.931 18.16 6 14.545 6 C 10.932 6 8 8.931 8 12.546 C 8 16.16 10.932 19.089 14.545 19.089 C 15.826 19.089 17.016 18.716 18.025 18.081 L 21.517 21.573 C 21.801 21.857 22.174 22 22.545 22 C 22.918 22 23.289 21.857 23.574 21.574 C 24.143 21.005 24.143 20.085 23.574 19.517 Z M 10.182 12.546 C 10.182 10.14 12.139 8.183 14.545 8.183 C 16.951 8.183 18.908 10.14 18.908 12.546 C 18.908 14.952 16.951 16.908 14.545 16.908 C 12.139 16.908 10.182 14.952 10.182 12.546 Z" stroke-opacity="0" stroke-miterlimit="10"/></g></g></g></g></g></g><g transform="translate(0,0) matrix(1,0,0,1,1126,98)"><g><g transform="translate(0,0) scale(0.24,0.28)"><g><path fill="none" stroke="none" d="M 0 0 L 96 0 Q 100 0 100 4 L 100 96 Q 100 100 96 100 L 0 100 L 0 0 Z"/><g transform="scale(4.166666666666667,3.571428571428571)"><path fill="#F2F2F2" stroke="#BBBBBB" d="M 0 0 L 20 0 Q 24 0 24 4 L 24 24.000000000000004 Q 24 28.000000000000004 20 28.000000000000004 L 0 28.000000000000004 L 0 0 Z" stroke-miterlimit="10" stroke-width="2"/></g></g></g></g></g><g transform="translate(0.5,0.5) matrix(1,0,0,1,1134,110)"><g><g transform="translate(0,0) scale(1,1) translate(-107.438,-12)"><g><path fill="#999999" stroke="rgb(0,0,0)" d="M 115.438 12 L 111.438 16 L 107.438 12 L 115.438 12 Z" stroke-opacity="0" stroke-miterlimit="10"/></g></g></g></g><g transform="translate(0,0) matrix(1,0,0,1,1030,98)"><g><g transform="translate(0,0) scale(0.96,0.28)"><g><path fill="none" stroke="none" d="M 4 0 L 100 0 L 100 100 L 4 100 Q 0 100 0 96 L 0 4 Q 0 0 4 0 Z"/><g transform="scale(1.0416666666666667,3.571428571428571)"><path fill="#FFFFFF" stroke="#BBBBBB" d="M 4 0 L 96 0 L 96 28.000000000000004 L 4 28.000000000000004 Q 0 28.000000000000004 0 24.000000000000004 L 0 4 Q 0 0 4 0 Z" stroke-miterlimit="10" stroke-width="2"/></g></g></g></g></g><g transform="matrix(1,0,0,1,1038,106)"><g transform="translate(0,-1) matrix(1,0,0,1,0,0) translate(0,1)"><g><rect fill="rgb(0,0,0)" stroke="none" x="0" y="0" width="81" height="29" fill-opacity="0"/></g></g><g transform="translate(0,-1) matrix(1,0,0,1,0,0) translate(0,1)"><g><rect fill="rgb(0,0,0)" stroke="none" x="0" y="0" width="81" height="13" fill-opacity="0"/></g></g><g transform="translate(0,-1) matrix(1,0,0,1,0,0) translate(0,1)"><g><rect fill="rgb(0,0,0)" stroke="none" x="0" y="-1" width="41" height="15" fill-opacity="0"/></g><text fill="rgb(102, 102, 102)" stroke="none" font-family="Helvetica" font-size="13px" font-style="normal" font-weight="normal" text-decoration="" line-height="13px" x="0" y="11">History</text></g></g><g transform="translate(0,0) matrix(1,0,0,1,770,200)"><g><g transform="translate(0,0) scale(2.6,5.599999999999999)"><g><path fill="#FFFFFF" stroke="none" d="M 0 0 L 100 0 Q 100 0 100 0 L 100 100 Q 100 100 100 100 L 0 100 Q 0 100 0 100 L 0 0 Q 0 0 0 0 Z"/><g transform="scale(0.3846153846153846,0.1785714285714286)"><path fill="none" stroke="#BBBBBB" d="M 0 0 L 260 0 Q 260 0 260 0 L 260 559.9999999999999 Q 260 559.9999999999999 260 559.9999999999999 L 0 559.9999999999999 Q 0 559.9999999999999 0 559.9999999999999 L 0 0 Q 0 0 0 0 Z" stroke-miterlimit="10" stroke-width="2"/></g></g></g></g></g><g transform="translate(0,0) matrix(1,0,0,1,770,200)"><g><g transform="translate(0,0) scale(2.6,0.3)"><g><path fill="#EEEEEE" stroke="none" d="M 0 0 L 100 0 Q 100 0 100 0 L 100 100 Q 100 100 100 100 L 0 100 Q 0 100 0 100 L 0 0 Q 0 0 0 0 Z"/><g transform="scale(0.3846153846153846,3.3333333333333335)"><path fill="none" stroke="#BBBBBB" d="M 0 0 L 260 0 Q 260 0 260 0 L 260 30 Q 260 30 260 30 L 0 30 Q 0 30 0 30 L 0 0 Q 0 0 0 0 Z" stroke-miterlimit="10" stroke-width="2"/></g></g></g></g></g><g transform="matrix(1,0,0,1,868,210)"><g transform="translate(7,-1) matrix(1,0,0,1,0,0) translate(-7,1)"><g><rect fill="rgb(0,0,0)" stroke="none" x="0" y="0" width="59" height="13" fill-opacity="0"/></g></g><g transform="translate(7,-1) matrix(1,0,0,1,0,0) translate(-7,1)"><g><rect fill="rgb(0,0,0)" stroke="none" x="0" y="0" width="59" height="13" fill-opacity="0"/></g></g><g transform="translate(7,-1) matrix(1,0,0,1,0,0) translate(-7,1)"><g><rect fill="rgb(0,0,0)" stroke="none" x="7" y="-1" width="45" height="15" fill-opacity="0"/></g><text fill="rgb(102, 102, 102)" stroke="none" font-family="Helvetica" font-size="13px" font-style="normal" font-weight="normal" text-decoration="" line-height="13px" x="7" y="11">System</text></g></g><g transform="translate(0.5,0.5) matrix(1,0,0,1,1010,210)"><g><g transform="translate(0,0) scale(1.001201441730076,1.000300090027008) translate(-429.054,-9.325)"><g><path fill="#BBBBBB" stroke="rgb(0,0,0)" d="M 438.854 17.605 C 438.979 17.732 439.042 17.876 439.042 18.038 C 439.042 18.201 438.979 18.346 438.854 18.471 L 438.203 19.134 C 438.078 19.26 437.932 19.322 437.762 19.322 C 437.594 19.322 437.448 19.26 437.326 19.134 L 434.049 15.852 L 430.759 19.134 C 430.633 19.26 430.488 19.322 430.326 19.322 C 430.163 19.322 430.018 19.26 429.893 19.134 L 429.242 18.485 C 429.116 18.36 429.054 18.213 429.054 18.046 C 429.054 17.88 429.116 17.734 429.242 17.607 L 432.547 14.291 L 429.242 11.041 C 429.116 10.914 429.054 10.769 429.054 10.602 C 429.054 10.435 429.116 10.29 429.242 10.164 L 429.893 9.513 C 430.018 9.387 430.165 9.325 430.335 9.325 C 430.503 9.325 430.649 9.387 430.77 9.513 L 434.048 12.79 L 437.325 9.513 C 437.45 9.387 437.597 9.325 437.765 9.325 C 437.93 9.325 438.077 9.387 438.202 9.513 L 438.853 10.164 C 438.978 10.289 439.041 10.435 439.041 10.605 C 439.041 10.773 438.978 10.919 438.853 11.041 L 435.548 14.357 L 438.854 17.605 L 438.854 17.605 Z" stroke-opacity="0" stroke-miterlimit="10"/></g></g></g></g><g transform="matrix(1,0,0,1,807,249)"><g transform="translate(75,4) matrix(1,0,0,1,0,0) translate(-75,-4)"><g><rect fill="rgb(0,0,0)" stroke="none" x="0" y="0" width="196" height="50" fill-opacity="0"/></g></g><g transform="translate(75,4) matrix(1,0,0,1,0,0) translate(-75,-4)"><g><rect fill="rgb(0,0,0)" stroke="none" x="0" y="0" width="196" height="32" fill-opacity="0"/></g></g><g transform="translate(75,4) matrix(1,0,0,1,0,0) translate(-75,-4)"><g><rect fill="rgb(0,0,0)" stroke="none" x="24" y="2" width="148" height="30" fill-opacity="0"/></g></g><g transform="translate(75,4) matrix(1,0,0,1,0,0) translate(-75,-4)"><g><rect fill="rgb(0,0,0)" stroke="none" x="24" y="2" width="148" height="30" fill-opacity="0"/></g><text fill="rgb(7, 30, 45)" stroke="none" font-family="Arial" font-size="12px" font-style="normal" font-weight="normal" text-decoration="" line-height="14px" x="24" y="13">I</text></g><g transform="translate(75,4) matrix(1,0,0,1,0,0) translate(-75,-4)"><g><rect fill="rgb(0,0,0)" stroke="none" x="27" y="0" width="145" height="32" fill-opacity="0"/></g><text fill="rgb(7, 30, 45)" stroke="none" font-family="Arial" font-size="14px" font-style="normal" font-weight="bold" text-decoration="" line-height="16.5px" x="27" y="13">nformation</text><text fill="rgb(7, 30, 45)" stroke="none" font-family="Arial" font-size="14px" font-style="normal" font-weight="bold" text-decoration="" line-height="16.5px" x="106" y="13">about</text><text fill="rgb(7, 30, 45)" stroke="none" font-family="Arial" font-size="14px" font-style="normal" font-weight="bold" text-decoration="" line-height="16.5px" x="150" y="13">the</text><text fill="rgb(7, 30, 45)" stroke="none" font-family="Arial" font-size="14px" font-style="normal" font-weight="bold" text-decoration="" line-height="16.5px" x="73" y="29">System</text></g></g><g transform="matrix(1,0,0,1,798,360)"><g transform="translate(40,0) matrix(1,0,0,1,0,0) translate(-40,0)"><g><rect fill="rgb(0,0,0)" stroke="none" x="0" y="0" width="205" height="14" fill-opacity="0"/></g></g><g transform="translate(40,0) matrix(1,0,0,1,0,0) translate(-40,0)"><g><rect fill="rgb(0,0,0)" stroke="none" x="0" y="0" width="205" height="14" fill-opacity="0"/></g></g><g transform="translate(40,0) matrix(1,0,0,1,0,0) translate(-40,0)"><g><rect fill="rgb(0,0,0)" stroke="none" x="20" y="0" width="165" height="14" fill-opacity="0"/></g></g><g transform="translate(40,0) matrix(1,0,0,1,0,0) translate(-40,0)"><g><rect fill="rgb(0,0,0)" stroke="none" x="20" y="0" width="165" height="14" fill-opacity="0"/></g><text fill="rgb(7, 30, 45)" stroke="none" font-family="Arial" font-size="12px" font-style="normal" font-weight="normal" text-decoration="" line-height="14px" x="20" y="11">A</text><text fill="rgb(7, 30, 45)" stroke="none" font-family="Arial" font-size="12px" font-style="normal" font-weight="normal" text-decoration="" line-height="14px" x="31" y="11">List</text><text fill="rgb(7, 30, 45)" stroke="none" font-family="Arial" font-size="12px" font-style="normal" font-weight="normal" text-decoration="" line-height="14px" x="53" y="11">over</text><text fill="rgb(7, 30, 45)" stroke="none" font-family="Arial" font-size="12px" font-style="normal" font-weight="normal" text-decoration="" line-height="14px" x="80" y="11">the</text><text fill="rgb(7, 30, 45)" stroke="none" font-family="Arial" font-size="12px" font-style="normal" font-weight="normal" text-decoration="" line-height="14px" x="100" y="11">Server</text><text fill="rgb(7, 30, 45)" stroke="none" font-family="Arial" font-size="12px" font-style="normal" font-weight="normal" text-decoration="" line-height="14px" x="139" y="11">Systems</text></g></g><g transform="matrix(1,0,0,1,0.4999847412109375,287.4305518939172)"><g transform="translate(0,0)"><g transform="translate(-4.9999847412109375,-291.9305518939172) translate(4.5,4.5) matrix(1,0,0,1,0,0)"><g><path fill="none" stroke="#0E75AB" d="M 4.9999847412109375 291.9305518939172 L 734.0030415174698 291.9305518939175" stroke-miterlimit="10" stroke-width="2"/></g></g></g></g><g transform="matrix(1,0,0,1,152,285)"><g transform="translate(3,0) matrix(1,0,0,1,0,0) translate(-3,0)"><path fill="none" stroke="none" d="M 0 0 L 437 0 L 437 14 L 0 14 Z"/><g><rect fill="rgb(255, 255, 255)" stroke="none" x="0" y="0" width="437" height="14"/></g></g><g transform="translate(3,0) matrix(1,0,0,1,0,0) translate(-3,0)"><path fill="none" stroke="none" d="M 0 0 L 437 0 L 437 14 L 0 14 Z"/><g><rect fill="rgb(0,0,0)" stroke="none" x="0" y="0" width="437" height="14" fill-opacity="0"/></g></g><g transform="translate(3,0) matrix(1,0,0,1,0,0) translate(-3,0)"><path fill="none" stroke="none" d="M 3 0 L 434 0 L 434 14 L 3 14 Z"/><g><rect fill="rgb(0,0,0)" stroke="none" x="3" y="0" width="431" height="14" fill-opacity="0"/></g><text fill="rgb(7, 30, 45)" stroke="none" font-family="Arial" font-size="12px" font-style="normal" font-weight="normal" text-decoration="" line-height="14px" x="3" y="11">The</text><text fill="rgb(7, 30, 45)" stroke="none" font-family="Arial" font-size="12px" font-style="normal" font-weight="normal" text-decoration="" line-height="14px" x="27" y="11">Line</text><text fill="rgb(7, 30, 45)" stroke="none" font-family="Arial" font-size="12px" font-style="normal" font-weight="normal" text-decoration="" line-height="14px" x="51" y="11">,</text><text fill="rgb(7, 30, 45)" stroke="none" font-family="Arial" font-size="12px" font-style="normal" font-weight="normal" text-decoration="" line-height="14px" x="57" y="11">which</text><text fill="rgb(7, 30, 45)" stroke="none" font-family="Arial" font-size="12px" font-style="normal" font-weight="normal" text-decoration="" line-height="14px" x="92" y="11">shows</text><text fill="rgb(7, 30, 45)" stroke="none" font-family="Arial" font-size="12px" font-style="normal" font-weight="normal" text-decoration="" line-height="14px" x="130" y="11">the</text><text fill="rgb(7, 30, 45)" stroke="none" font-family="Arial" font-size="12px" font-style="normal" font-weight="normal" text-decoration="" line-height="14px" x="150" y="11">SSD</text><text fill="rgb(7, 30, 45)" stroke="none" font-family="Arial" font-size="12px" font-style="normal" font-weight="normal" text-decoration="" line-height="14px" x="178" y="11">which</text><text fill="rgb(7, 30, 45)" stroke="none" font-family="Arial" font-size="12px" font-style="normal" font-weight="normal" text-decoration="" line-height="14px" x="213" y="11">has</text><text fill="rgb(7, 30, 45)" stroke="none" font-family="Arial" font-size="12px" font-style="normal" font-weight="normal" text-decoration="" line-height="14px" x="236" y="11">reached</text><text fill="rgb(7, 30, 45)" stroke="none" font-family="Arial" font-size="12px" font-style="normal" font-weight="normal" text-decoration="" line-height="14px" x="284" y="11">the</text><text fill="rgb(7, 30, 45)" stroke="none" font-family="Arial" font-size="12px" font-style="normal" font-weight="normal" text-decoration="" line-height="14px" x="304" y="11">max</text><text fill="rgb(7, 30, 45)" stroke="none" font-family="Arial" font-size="12px" font-style="normal" font-weight="normal" text-decoration="" line-height="14px" x="327" y="11">.</text><text fill="rgb(7, 30, 45)" stroke="none" font-family="Arial" font-size="12px" font-style="normal" font-weight="normal" text-decoration="" line-height="14px" x="333" y="11">of</text><text fill="rgb(7, 30, 45)" stroke="none" font-family="Arial" font-size="12px" font-style="normal" font-weight="normal" text-decoration="" line-height="14px" x="346" y="11">write</text><text fill="rgb(7, 30, 45)" stroke="none" font-family="Arial" font-size="12px" font-style="normal" font-weight="normal" text-decoration="" line-height="14px" x="375" y="11">endurance</text></g></g><g transform="matrix(1,0,0,1,782,552)"><g transform="translate(748,378) matrix(1,0,0,1,0,0) translate(-748,-378)"><g><rect fill="rgb(0,0,0)" stroke="none" x="0" y="0" width="240" height="80" fill-opacity="0"/></g></g><g transform="translate(748,378) matrix(1,0,0,1,0,0) translate(-748,-378)"><g><rect fill="rgb(0,0,0)" stroke="none" x="0" y="0" width="240" height="28" fill-opacity="0"/></g></g><g transform="translate(748,378) matrix(1,0,0,1,0,0) translate(-748,-378)"><g><rect fill="rgb(0,0,0)" stroke="none" x="17" y="0" width="237" height="28" fill-opacity="0"/></g></g><g transform="translate(748,378) matrix(1,0,0,1,0,0) translate(-748,-378)"><g><rect fill="rgb(0,0,0)" stroke="none" x="17" y="0" width="237" height="28" fill-opacity="0"/></g><text fill="rgb(7, 30, 45)" stroke="none" font-family="Arial" font-size="12px" font-style="normal" font-weight="normal" text-decoration="" line-height="14px" x="17" y="11">A</text><text fill="rgb(7, 30, 45)" stroke="none" font-family="Arial" font-size="12px" font-style="normal" font-weight="normal" text-decoration="" line-height="14px" x="28" y="11">list</text><text fill="rgb(7, 30, 45)" stroke="none" font-family="Arial" font-size="12px" font-style="normal" font-weight="normal" text-decoration="" line-height="14px" x="46" y="11">of</text><text fill="rgb(7, 30, 45)" stroke="none" font-family="Arial" font-size="12px" font-style="normal" font-weight="normal" text-decoration="" line-height="14px" x="59" y="11">all</text><text fill="rgb(7, 30, 45)" stroke="none" font-family="Arial" font-size="12px" font-style="normal" font-weight="normal" text-decoration="" line-height="14px" x="75" y="11">SSD</text><text fill="rgb(7, 30, 45)" stroke="none" font-family="Arial" font-size="12px" font-style="normal" font-weight="normal" text-decoration="" line-height="14px" x="103" y="11">in</text><text fill="rgb(7, 30, 45)" stroke="none" font-family="Arial" font-size="12px" font-style="normal" font-weight="normal" text-decoration="" line-height="14px" x="116" y="11">the</text><text fill="rgb(7, 30, 45)" stroke="none" font-family="Arial" font-size="12px" font-style="normal" font-weight="normal" text-decoration="" line-height="14px" x="136" y="11">Physical</text><text fill="rgb(7, 30, 45)" stroke="none" font-family="Arial" font-size="12px" font-style="normal" font-weight="normal" text-decoration="" line-height="14px" x="185" y="11">Server</text><text fill="rgb(7, 30, 45)" stroke="none" font-family="Arial" font-size="12px" font-style="normal" font-weight="normal" text-decoration="" line-height="14px" x="221" y="11">,</text><text fill="rgb(7, 30, 45)" stroke="none" font-family="Arial" font-size="12px" font-style="normal" font-weight="normal" text-decoration="" line-height="14px" x="2" y="25">which</text><text fill="rgb(7, 30, 45)" stroke="none" font-family="Arial" font-size="12px" font-style="normal" font-weight="normal" text-decoration="" line-height="14px" x="37" y="25">must</text><text fill="rgb(7, 30, 45)" stroke="none" font-family="Arial" font-size="12px" font-style="normal" font-weight="normal" text-decoration="" line-height="14px" x="66" y="25">exchanged</text><text fill="rgb(7, 30, 45)" stroke="none" font-family="Arial" font-size="12px" font-style="normal" font-weight="normal" text-decoration="" line-height="14px" x="130" y="25">in</text><text fill="rgb(7, 30, 45)" stroke="none" font-family="Arial" font-size="12px" font-style="normal" font-weight="normal" text-decoration="" line-height="14px" x="143" y="25">the</text><text fill="rgb(7, 30, 45)" stroke="none" font-family="Arial" font-size="12px" font-style="normal" font-weight="normal" text-decoration="" line-height="14px" x="163" y="25">next</text><text fill="rgb(7, 30, 45)" stroke="none" font-family="Arial" font-size="12px" font-style="normal" font-weight="normal" text-decoration="" line-height="14px" x="189" y="25">2</text><text fill="rgb(7, 30, 45)" stroke="none" font-family="Arial" font-size="12px" font-style="normal" font-weight="normal" text-decoration="" line-height="14px" x="199" y="25">Weeks</text><text fill="rgb(7, 30, 45)" stroke="none" font-family="Arial" font-size="12px" font-style="normal" font-weight="normal" text-decoration="" line-height="14px" x="235" y="25">.</text></g><g transform="translate(748,378) matrix(1,0,0,1,0,0) translate(-748,-378)"><g><rect fill="rgb(0,0,0)" stroke="none" x="0" y="28" width="240" height="14" fill-opacity="0"/></g></g><g transform="translate(748,378) matrix(1,0,0,1,0,0) translate(-748,-378)"><g><rect fill="rgb(0,0,0)" stroke="none" x="119" y="28" width="3" height="14" fill-opacity="0"/></g></g><g transform="translate(748,378) matrix(1,0,0,1,0,0) translate(-748,-378)"><g><rect fill="rgb(0,0,0)" stroke="none" x="119" y="28" width="3" height="14" fill-opacity="0"/></g></g><g transform="translate(748,378) matrix(1,0,0,1,0,0) translate(-748,-378)"><g><rect fill="rgb(0,0,0)" stroke="none" x="0" y="42" width="240" height="14" fill-opacity="0"/></g></g><g transform="translate(748,378) matrix(1,0,0,1,0,0) translate(-748,-378)"><g><rect fill="rgb(0,0,0)" stroke="none" x="119" y="42" width="3" height="14" fill-opacity="0"/></g></g><g transform="translate(748,378) matrix(1,0,0,1,0,0) translate(-748,-378)"><g><rect fill="rgb(0,0,0)" stroke="none" x="119" y="42" width="3" height="14" fill-opacity="0"/></g></g><g transform="translate(748,378) matrix(1,0,0,1,0,0) translate(-748,-378)"><g><rect fill="rgb(0,0,0)" stroke="none" x="0" y="56" width="240" height="14" fill-opacity="0"/></g></g><g transform="translate(748,378) matrix(1,0,0,1,0,0) translate(-748,-378)"><g><rect fill="rgb(0,0,0)" stroke="none" x="119" y="56" width="3" height="14" fill-opacity="0"/></g></g><g transform="translate(748,378) matrix(1,0,0,1,0,0) translate(-748,-378)"><g><rect fill="rgb(0,0,0)" stroke="none" x="119" y="56" width="3" height="14" fill-opacity="0"/></g></g></g><g transform="matrix(1,0,0,1,136,620)"><g transform="translate(44,0) matrix(1,0,0,1,0,0) translate(-44,0)"><g><rect fill="rgb(0,0,0)" stroke="none" x="0" y="0" width="75" height="14" fill-opacity="0"/></g></g><g transform="translate(44,0) matrix(1,0,0,1,0,0) translate(-44,0)"><g><rect fill="rgb(0,0,0)" stroke="none" x="0" y="0" width="75" height="14" fill-opacity="0"/></g></g><g transform="translate(44,0) matrix(1,0,0,1,0,0) translate(-44,0)"><g><rect fill="rgb(0,0,0)" stroke="none" x="22" y="0" width="32" height="14" fill-opacity="0"/></g></g><g transform="translate(44,0) matrix(1,0,0,1,0,0) translate(-44,0)"><g><rect fill="rgb(0,0,0)" stroke="none" x="22" y="0" width="32" height="14" fill-opacity="0"/></g><text fill="rgb(7, 30, 45)" stroke="none" font-family="Arial" font-size="12px" font-style="normal" font-weight="normal" text-decoration="" line-height="14px" x="22" y="11">SSD1</text></g></g><g transform="matrix(1,0,0,1,175,520)"><g transform="translate(16,0) matrix(1,0,0,1,0,0) translate(-16,0)"><g><rect fill="rgb(0,0,0)" stroke="none" x="0" y="0" width="48" height="14" fill-opacity="0"/></g></g><g transform="translate(16,0) matrix(1,0,0,1,0,0) translate(-16,0)"><g><rect fill="rgb(0,0,0)" stroke="none" x="0" y="0" width="48" height="14" fill-opacity="0"/></g></g><g transform="translate(16,0) matrix(1,0,0,1,0,0) translate(-16,0)"><g><rect fill="rgb(0,0,0)" stroke="none" x="8" y="0" width="32" height="14" fill-opacity="0"/></g></g><g transform="translate(16,0) matrix(1,0,0,1,0,0) translate(-16,0)"><g><rect fill="rgb(0,0,0)" stroke="none" x="8" y="0" width="32" height="14" fill-opacity="0"/></g><text fill="rgb(7, 30, 45)" stroke="none" font-family="Arial" font-size="12px" font-style="normal" font-weight="normal" text-decoration="" line-height="14px" x="8" y="11">SSD2</text></g></g><g transform="matrix(1,0,0,1,82,480)"><g transform="translate(8,0) matrix(1,0,0,1,0,0) translate(-8,0)"><g><rect fill="rgb(0,0,0)" stroke="none" x="0" y="0" width="40" height="14" fill-opacity="0"/></g></g><g transform="translate(8,0) matrix(1,0,0,1,0,0) translate(-8,0)"><g><rect fill="rgb(0,0,0)" stroke="none" x="0" y="0" width="40" height="14" fill-opacity="0"/></g></g><g transform="translate(8,0) matrix(1,0,0,1,0,0) translate(-8,0)"><g><rect fill="rgb(0,0,0)" stroke="none" x="4" y="0" width="32" height="14" fill-opacity="0"/></g></g><g transform="translate(8,0) matrix(1,0,0,1,0,0) translate(-8,0)"><g><rect fill="rgb(0,0,0)" stroke="none" x="4" y="0" width="32" height="14" fill-opacity="0"/></g><text fill="rgb(7, 30, 45)" stroke="none" font-family="Arial" font-size="12px" font-style="normal" font-weight="normal" text-decoration="" line-height="14px" x="4" y="11">SSD3</text></g></g><g transform="matrix(1,0,0,1,13,770)"><g transform="translate(28,0) matrix(1,0,0,1,0,0) translate(-28,0)"><g><rect fill="rgb(0,0,0)" stroke="none" x="0" y="0" width="719" height="67" fill-opacity="0"/></g></g><g transform="translate(28,0) matrix(1,0,0,1,0,0) translate(-28,0)"><g><rect fill="rgb(0,0,0)" stroke="none" x="0" y="0" width="719" height="56" fill-opacity="0"/></g></g><g transform="translate(28,0) matrix(1,0,0,1,0,0) translate(-28,0)"><g><rect fill="rgb(0,0,0)" stroke="none" x="14" y="0" width="701" height="56" fill-opacity="0"/></g></g><g transform="translate(28,0) matrix(1,0,0,1,0,0) translate(-28,0)"><g><rect fill="rgb(0,0,0)" stroke="none" x="14" y="0" width="701" height="56" fill-opacity="0"/></g><text fill="rgb(7, 30, 45)" stroke="none" font-family="Arial" font-size="12px" font-style="normal" font-weight="normal" text-decoration="" line-height="14px" x="14" y="11">Short</text><text fill="rgb(7, 30, 45)" stroke="none" font-family="Arial" font-size="12px" font-style="normal" font-weight="normal" text-decoration="" line-height="14px" x="46" y="11">Explain</text><text fill="rgb(7, 30, 45)" stroke="none" font-family="Arial" font-size="12px" font-style="normal" font-weight="normal" text-decoration="" line-height="14px" x="90" y="11">over</text><text fill="rgb(7, 30, 45)" stroke="none" font-family="Arial" font-size="12px" font-style="normal" font-weight="normal" text-decoration="" line-height="14px" x="117" y="11">the</text><text fill="rgb(7, 30, 45)" stroke="none" font-family="Arial" font-size="12px" font-style="normal" font-weight="normal" text-decoration="" line-height="14px" x="137" y="11">chart</text><text fill="rgb(7, 30, 45)" stroke="none" font-family="Arial" font-size="12px" font-style="normal" font-weight="normal" text-decoration="" line-height="14px" x="167" y="11">on</text><text fill="rgb(7, 30, 45)" stroke="none" font-family="Arial" font-size="12px" font-style="normal" font-weight="normal" text-decoration="" line-height="14px" x="184" y="11">the</text><text fill="rgb(7, 30, 45)" stroke="none" font-family="Arial" font-size="12px" font-style="normal" font-weight="normal" text-decoration="" line-height="14px" x="204" y="11">Top</text><text fill="rgb(7, 30, 45)" stroke="none" font-family="Arial" font-size="12px" font-style="normal" font-weight="normal" text-decoration="" line-height="14px" x="226" y="11">on</text><text fill="rgb(7, 30, 45)" stroke="none" font-family="Arial" font-size="12px" font-style="normal" font-weight="normal" text-decoration="" line-height="14px" x="243" y="11">this</text><text fill="rgb(7, 30, 45)" stroke="none" font-family="Arial" font-size="12px" font-style="normal" font-weight="normal" text-decoration="" line-height="14px" x="265" y="11">text</text><text fill="rgb(7, 30, 45)" stroke="none" font-family="Arial" font-size="12px" font-style="normal" font-weight="normal" text-decoration="" line-height="14px" x="287" y="11">bar</text><text fill="rgb(7, 30, 45)" stroke="none" font-family="Arial" font-size="12px" font-style="normal" font-weight="normal" text-decoration="" line-height="14px" x="305" y="11">.</text><text fill="rgb(7, 30, 45)" stroke="none" font-family="Arial" font-size="12px" font-style="normal" font-weight="normal" text-decoration="" line-height="14px" x="311" y="11">Here</text><text fill="rgb(7, 30, 45)" stroke="none" font-family="Arial" font-size="12px" font-style="normal" font-weight="normal" text-decoration="" line-height="14px" x="341" y="11">you</text><text fill="rgb(7, 30, 45)" stroke="none" font-family="Arial" font-size="12px" font-style="normal" font-weight="normal" text-decoration="" line-height="14px" x="364" y="11">can</text><text fill="rgb(7, 30, 45)" stroke="none" font-family="Arial" font-size="12px" font-style="normal" font-weight="normal" text-decoration="" line-height="14px" x="387" y="11">see</text><text fill="rgb(7, 30, 45)" stroke="none" font-family="Arial" font-size="12px" font-style="normal" font-weight="normal" text-decoration="" line-height="14px" x="410" y="11">all</text><text fill="rgb(7, 30, 45)" stroke="none" font-family="Arial" font-size="12px" font-style="normal" font-weight="normal" text-decoration="" line-height="14px" x="426" y="11">SSD</text><text fill="rgb(7, 30, 45)" stroke="none" font-family="Arial" font-size="12px" font-style="normal" font-weight="normal" text-decoration="" line-height="14px" x="451" y="11">'</text><text fill="rgb(7, 30, 45)" stroke="none" font-family="Arial" font-size="12px" font-style="normal" font-weight="normal" text-decoration="" line-height="14px" x="453" y="11">s</text><text fill="rgb(7, 30, 45)" stroke="none" font-family="Arial" font-size="12px" font-style="normal" font-weight="normal" text-decoration="" line-height="14px" x="462" y="11">per</text><text fill="rgb(7, 30, 45)" stroke="none" font-family="Arial" font-size="12px" font-style="normal" font-weight="normal" text-decoration="" line-height="14px" x="483" y="11">Physical</text><text fill="rgb(7, 30, 45)" stroke="none" font-family="Arial" font-size="12px" font-style="normal" font-weight="normal" text-decoration="" line-height="14px" x="532" y="11">Server</text><text fill="rgb(7, 30, 45)" stroke="none" font-family="Arial" font-size="12px" font-style="normal" font-weight="normal" text-decoration="" line-height="14px" x="568" y="11">.</text><text fill="rgb(7, 30, 45)" stroke="none" font-family="Arial" font-size="12px" font-style="normal" font-weight="normal" text-decoration="" line-height="14px" x="574" y="11">The</text><text fill="rgb(7, 30, 45)" stroke="none" font-family="Arial" font-size="12px" font-style="normal" font-weight="normal" text-decoration="" line-height="14px" x="598" y="11">Physical</text><text fill="rgb(7, 30, 45)" stroke="none" font-family="Arial" font-size="12px" font-style="normal" font-weight="normal" text-decoration="" line-height="14px" x="647" y="11">Server</text><text fill="rgb(7, 30, 45)" stroke="none" font-family="Arial" font-size="12px" font-style="normal" font-weight="normal" text-decoration="" line-height="14px" x="686" y="11">can</text><text fill="rgb(7, 30, 45)" stroke="none" font-family="Arial" font-size="12px" font-style="normal" font-weight="normal" text-decoration="" line-height="14px" x="15" y="25">choosen</text><text fill="rgb(7, 30, 45)" stroke="none" font-family="Arial" font-size="12px" font-style="normal" font-weight="normal" text-decoration="" line-height="14px" x="65" y="25">on</text><text fill="rgb(7, 30, 45)" stroke="none" font-family="Arial" font-size="12px" font-style="normal" font-weight="normal" text-decoration="" line-height="14px" x="82" y="25">the</text><text fill="rgb(7, 30, 45)" stroke="none" font-family="Arial" font-size="12px" font-style="normal" font-weight="normal" text-decoration="" line-height="14px" x="102" y="25">navBar</text><text fill="rgb(7, 30, 45)" stroke="none" font-family="Arial" font-size="12px" font-style="normal" font-weight="normal" text-decoration="" line-height="14px" x="144" y="25">on</text><text fill="rgb(7, 30, 45)" stroke="none" font-family="Arial" font-size="12px" font-style="normal" font-weight="normal" text-decoration="" line-height="14px" x="161" y="25">the</text><text fill="rgb(7, 30, 45)" stroke="none" font-family="Arial" font-size="12px" font-style="normal" font-weight="normal" text-decoration="" line-height="14px" x="181" y="25">right</text><text fill="rgb(7, 30, 45)" stroke="none" font-family="Arial" font-size="12px" font-style="normal" font-weight="normal" text-decoration="" line-height="14px" x="208" y="25">side</text><text fill="rgb(7, 30, 45)" stroke="none" font-family="Arial" font-size="12px" font-style="normal" font-weight="normal" text-decoration="" line-height="14px" x="231" y="25">.</text><text fill="rgb(7, 30, 45)" stroke="none" font-family="Arial" font-size="12px" font-style="normal" font-weight="normal" text-decoration="" line-height="14px" x="237" y="25">On</text><text fill="rgb(7, 30, 45)" stroke="none" font-family="Arial" font-size="12px" font-style="normal" font-weight="normal" text-decoration="" line-height="14px" x="256" y="25">the</text><text fill="rgb(7, 30, 45)" stroke="none" font-family="Arial" font-size="12px" font-style="normal" font-weight="normal" text-decoration="" line-height="14px" x="276" y="25">chart</text><text fill="rgb(7, 30, 45)" stroke="none" font-family="Arial" font-size="12px" font-style="normal" font-weight="normal" text-decoration="" line-height="14px" x="306" y="25">the</text><text fill="rgb(7, 30, 45)" stroke="none" font-family="Arial" font-size="12px" font-style="normal" font-weight="normal" text-decoration="" line-height="14px" x="326" y="25">administrator</text><text fill="rgb(7, 30, 45)" stroke="none" font-family="Arial" font-size="12px" font-style="normal" font-weight="normal" text-decoration="" line-height="14px" x="400" y="25">can</text><text fill="rgb(7, 30, 45)" stroke="none" font-family="Arial" font-size="12px" font-style="normal" font-weight="normal" text-decoration="" line-height="14px" x="423" y="25">see</text><text fill="rgb(7, 30, 45)" stroke="none" font-family="Arial" font-size="12px" font-style="normal" font-weight="normal" text-decoration="" line-height="14px" x="446" y="25">all</text><text fill="rgb(7, 30, 45)" stroke="none" font-family="Arial" font-size="12px" font-style="normal" font-weight="normal" text-decoration="" line-height="14px" x="462" y="25">SSD</text><text fill="rgb(7, 30, 45)" stroke="none" font-family="Arial" font-size="12px" font-style="normal" font-weight="normal" text-decoration="" line-height="14px" x="487" y="25">'</text><text fill="rgb(7, 30, 45)" stroke="none" font-family="Arial" font-size="12px" font-style="normal" font-weight="normal" text-decoration="" line-height="14px" x="489" y="25">s</text><text fill="rgb(7, 30, 45)" stroke="none" font-family="Arial" font-size="12px" font-style="normal" font-weight="normal" text-decoration="" line-height="14px" x="498" y="25">from</text><text fill="rgb(7, 30, 45)" stroke="none" font-family="Arial" font-size="12px" font-style="normal" font-weight="normal" text-decoration="" line-height="14px" x="525" y="25">a</text><text fill="rgb(7, 30, 45)" stroke="none" font-family="Arial" font-size="12px" font-style="normal" font-weight="normal" text-decoration="" line-height="14px" x="535" y="25">physical</text><text fill="rgb(7, 30, 45)" stroke="none" font-family="Arial" font-size="12px" font-style="normal" font-weight="normal" text-decoration="" line-height="14px" x="583" y="25">Servers</text><text fill="rgb(7, 30, 45)" stroke="none" font-family="Arial" font-size="12px" font-style="normal" font-weight="normal" text-decoration="" line-height="14px" x="628" y="25">and</text><text fill="rgb(7, 30, 45)" stroke="none" font-family="Arial" font-size="12px" font-style="normal" font-weight="normal" text-decoration="" line-height="14px" x="652" y="25">their</text><text fill="rgb(7, 30, 45)" stroke="none" font-family="Arial" font-size="12px" font-style="normal" font-weight="normal" text-decoration="" line-height="14px" x="679" y="25">write</text><text fill="rgb(7, 30, 45)" stroke="none" font-family="Arial" font-size="12px" font-style="normal" font-weight="normal" text-decoration="" line-height="14px" x="9" y="39">endurance</text><text fill="rgb(7, 30, 45)" stroke="none" font-family="Arial" font-size="12px" font-style="normal" font-weight="normal" text-decoration="" line-height="14px" x="68" y="39">.</text><text fill="rgb(7, 30, 45)" stroke="none" font-family="Arial" font-size="12px" font-style="normal" font-weight="normal" text-decoration="" line-height="14px" x="74" y="39">If</text><text fill="rgb(7, 30, 45)" stroke="none" font-family="Arial" font-size="12px" font-style="normal" font-weight="normal" text-decoration="" line-height="14px" x="83" y="39">a</text><text fill="rgb(7, 30, 45)" stroke="none" font-family="Arial" font-size="12px" font-style="normal" font-weight="normal" text-decoration="" line-height="14px" x="93" y="39">SSD</text><text fill="rgb(7, 30, 45)" stroke="none" font-family="Arial" font-size="12px" font-style="normal" font-weight="normal" text-decoration="" line-height="14px" x="118" y="39">'</text><text fill="rgb(7, 30, 45)" stroke="none" font-family="Arial" font-size="12px" font-style="normal" font-weight="normal" text-decoration="" line-height="14px" x="120" y="39">s</text><text fill="rgb(7, 30, 45)" stroke="none" font-family="Arial" font-size="12px" font-style="normal" font-weight="normal" text-decoration="" line-height="14px" x="129" y="39">get</text><text fill="rgb(7, 30, 45)" stroke="none" font-family="Arial" font-size="12px" font-style="normal" font-weight="normal" text-decoration="" line-height="14px" x="149" y="39">in</text><text fill="rgb(7, 30, 45)" stroke="none" font-family="Arial" font-size="12px" font-style="normal" font-weight="normal" text-decoration="" line-height="14px" x="162" y="39">touch</text><text fill="rgb(7, 30, 45)" stroke="none" font-family="Arial" font-size="12px" font-style="normal" font-weight="normal" text-decoration="" line-height="14px" x="195" y="39">with</text><text fill="rgb(7, 30, 45)" stroke="none" font-family="Arial" font-size="12px" font-style="normal" font-weight="normal" text-decoration="" line-height="14px" x="220" y="39">the</text><text fill="rgb(7, 30, 45)" stroke="none" font-family="Arial" font-size="12px" font-style="normal" font-weight="normal" text-decoration="" line-height="14px" x="240" y="39">Line</text><text fill="rgb(7, 30, 45)" stroke="none" font-family="Arial" font-size="12px" font-style="normal" font-weight="normal" text-decoration="" line-height="14px" x="267" y="39">a</text><text fill="rgb(7, 30, 45)" stroke="none" font-family="Arial" font-size="12px" font-style="normal" font-weight="normal" text-decoration="" line-height="14px" x="277" y="39">Notification</text><text fill="rgb(7, 30, 45)" stroke="none" font-family="Arial" font-size="12px" font-style="normal" font-weight="normal" text-decoration="" line-height="14px" x="341" y="39">will</text><text fill="rgb(7, 30, 45)" stroke="none" font-family="Arial" font-size="12px" font-style="normal" font-weight="normal" text-decoration="" line-height="14px" x="362" y="39">send</text><text fill="rgb(7, 30, 45)" stroke="none" font-family="Arial" font-size="12px" font-style="normal" font-weight="normal" text-decoration="" line-height="14px" x="392" y="39">to</text><text fill="rgb(7, 30, 45)" stroke="none" font-family="Arial" font-size="12px" font-style="normal" font-weight="normal" text-decoration="" line-height="14px" x="405" y="39">the</text><text fill="rgb(7, 30, 45)" stroke="none" font-family="Arial" font-size="12px" font-style="normal" font-weight="normal" text-decoration="" line-height="14px" x="425" y="39">Administrator</text><text fill="rgb(7, 30, 45)" stroke="none" font-family="Arial" font-size="12px" font-style="normal" font-weight="normal" text-decoration="" line-height="14px" x="500" y="39">and</text><text fill="rgb(7, 30, 45)" stroke="none" font-family="Arial" font-size="12px" font-style="normal" font-weight="normal" text-decoration="" line-height="14px" x="524" y="39">the</text><text fill="rgb(7, 30, 45)" stroke="none" font-family="Arial" font-size="12px" font-style="normal" font-weight="normal" text-decoration="" line-height="14px" x="544" y="39">SSD</text><text fill="rgb(7, 30, 45)" stroke="none" font-family="Arial" font-size="12px" font-style="normal" font-weight="normal" text-decoration="" line-height="14px" x="572" y="39">will</text><text fill="rgb(7, 30, 45)" stroke="none" font-family="Arial" font-size="12px" font-style="normal" font-weight="normal" text-decoration="" line-height="14px" x="593" y="39">declared</text><text fill="rgb(7, 30, 45)" stroke="none" font-family="Arial" font-size="12px" font-style="normal" font-weight="normal" text-decoration="" line-height="14px" x="644" y="39">on</text><text fill="rgb(7, 30, 45)" stroke="none" font-family="Arial" font-size="12px" font-style="normal" font-weight="normal" text-decoration="" line-height="14px" x="661" y="39">the</text><text fill="rgb(7, 30, 45)" stroke="none" font-family="Arial" font-size="12px" font-style="normal" font-weight="normal" text-decoration="" line-height="14px" x="681" y="39">Right</text><text fill="rgb(7, 30, 45)" stroke="none" font-family="Arial" font-size="12px" font-style="normal" font-weight="normal" text-decoration="" line-height="14px" x="134" y="53">navBar</text><text fill="rgb(7, 30, 45)" stroke="none" font-family="Arial" font-size="12px" font-style="normal" font-weight="normal" text-decoration="" line-height="14px" x="173" y="53">.</text><text fill="rgb(7, 30, 45)" stroke="none" font-family="Arial" font-size="12px" font-style="normal" font-weight="normal" text-decoration="" line-height="14px" x="179" y="53">Also</text><text fill="rgb(7, 30, 45)" stroke="none" font-family="Arial" font-size="12px" font-style="normal" font-weight="normal" text-decoration="" line-height="14px" x="206" y="53">you</text><text fill="rgb(7, 30, 45)" stroke="none" font-family="Arial" font-size="12px" font-style="normal" font-weight="normal" text-decoration="" line-height="14px" x="229" y="53">can</text><text fill="rgb(7, 30, 45)" stroke="none" font-family="Arial" font-size="12px" font-style="normal" font-weight="normal" text-decoration="" line-height="14px" x="252" y="53">see</text><text fill="rgb(7, 30, 45)" stroke="none" font-family="Arial" font-size="12px" font-style="normal" font-weight="normal" text-decoration="" line-height="14px" x="275" y="53">on</text><text fill="rgb(7, 30, 45)" stroke="none" font-family="Arial" font-size="12px" font-style="normal" font-weight="normal" text-decoration="" line-height="14px" x="292" y="53">the</text><text fill="rgb(7, 30, 45)" stroke="none" font-family="Arial" font-size="12px" font-style="normal" font-weight="normal" text-decoration="" line-height="14px" x="312" y="53">Chart</text><text fill="rgb(7, 30, 45)" stroke="none" font-family="Arial" font-size="12px" font-style="normal" font-weight="normal" text-decoration="" line-height="14px" x="342" y="53">,</text><text fill="rgb(7, 30, 45)" stroke="none" font-family="Arial" font-size="12px" font-style="normal" font-weight="normal" text-decoration="" line-height="14px" x="348" y="53">which</text><text fill="rgb(7, 30, 45)" stroke="none" font-family="Arial" font-size="12px" font-style="normal" font-weight="normal" text-decoration="" line-height="14px" x="383" y="53">SSD</text><text fill="rgb(7, 30, 45)" stroke="none" font-family="Arial" font-size="12px" font-style="normal" font-weight="normal" text-decoration="" line-height="14px" x="411" y="53">will</text><text fill="rgb(7, 30, 45)" stroke="none" font-family="Arial" font-size="12px" font-style="normal" font-weight="normal" text-decoration="" line-height="14px" x="432" y="53">work</text><text fill="rgb(7, 30, 45)" stroke="none" font-family="Arial" font-size="12px" font-style="normal" font-weight="normal" text-decoration="" line-height="14px" x="461" y="53">more</text><text fill="rgb(7, 30, 45)" stroke="none" font-family="Arial" font-size="12px" font-style="normal" font-weight="normal" text-decoration="" line-height="14px" x="492" y="53">then</text><text fill="rgb(7, 30, 45)" stroke="none" font-family="Arial" font-size="12px" font-style="normal" font-weight="normal" text-decoration="" line-height="14px" x="519" y="53">other</text><text fill="rgb(7, 30, 45)" stroke="none" font-family="Arial" font-size="12px" font-style="normal" font-weight="normal" text-decoration="" line-height="14px" x="550" y="53">SSD</text><text fill="rgb(7, 30, 45)" stroke="none" font-family="Arial" font-size="12px" font-style="normal" font-weight="normal" text-decoration="" line-height="14px" x="575" y="53">'</text><text fill="rgb(7, 30, 45)" stroke="none" font-family="Arial" font-size="12px" font-style="normal" font-weight="normal" text-decoration="" line-height="14px" x="577" y="53">s</text><text fill="rgb(7, 30, 45)" stroke="none" font-family="Arial" font-size="12px" font-style="normal" font-weight="normal" text-decoration="" line-height="14px" x="583" y="53">.</text></g></g></g></svg>